<svg xmlns="http://www.w3.org/2000/svg" xmlns:xlink="http://www.w3.org/1999/xlink" width="52" height="30" viewBox="0 0 52 30" fill="#f01e2f">
    <g transform="translate(35.815 4.805)">
        <mask id="jxmgdc38qc">
            <path id="1yjn9oylpb" d="M0.208 0.047L15.147 0.047 15.147 6.377 0.208 6.377z"/>
        </mask>
        <path  d="M1.052 3.315c.478-.259 1.067-.304 1.663-.292l.174.005c.623.017 1.246.062 1.87.075 1.166.024.256.008 1.421.032l2.273.047c.76.016 2.507-.081 2.874-.336.366-.255.555-.652.567-1.19.015-.671-.425-1.442.742-1.587 1.925-.238 2.537 1.466 2.51 2.654-.025 1.14-.5 2.046-1.427 2.719s-3.447.966-5.194.932c-2.482-.048-2.904-.06-4.355-.09l-.934-.022c-.771-.016-1.607.056-2.23-.317L.98 5.928c-1.041-.654-1.042-2.01.072-2.613"/>
    </g>
    <path  d="M20.712 7.949c-.484-.246-1.074-.276-1.67-.249l-.173.01c-.624.032-1.245.093-1.868.122-1.165.054-.256.015-1.42.069l-2.271.105c-.76.035-2.508-.017-2.881-.262-.373-.246-.572-.637-.598-1.175-.032-.67.387-1.453-.782-1.567-1.931-.189-2.499 1.53-2.442 2.717.055 1.14.554 2.033 1.497 2.682.944.648 3.471.877 5.216.798 2.48-.112 2.901-.135 4.352-.202l.932-.046c.771-.036 1.609.015 2.22-.374l.028-.017c1.023-.681.99-2.037-.14-2.611M21.502 22.881c.504 1.402 1.133 2.171 2.37 2.526 2.209.635 4.487-.23 4.487-4.98 0-1.832-.458-4.726-2.8-4.207-.712.158-1.376.426-1.77-.448-.292-.649-.266-1.635.082-2.24.238-.413.67-.661 1.113-.762.634-.145 1.36-.08 2.006-.044 1.63.093 3.156.537 4.243 2.06.985 1.384 1.48 3.27 1.485 5.66.004 2.618-.6 4.616-1.81 5.993-.558.634-2.265 2.096-5.385 2.12-2.237.017-4.044-.558-5.168-2.002-1.012-1.297-1.303-2.697-1.396-3.449-.085-.83-.066-1.758.97-1.94 1.07-.16 1.267.563 1.573 1.713"/>
    <g transform="translate(0 12.425)">
        <mask id="jdcr6y73ge" fill="none">
            <path id="9oxbl6aocd" d="M0 0.344L16.414 0.344 16.414 16.384 0 16.384z" />
        </mask>
        <path  d="M16.406 6.407L16.4 3.401c-.002-.771.13-1.605-.405-2.233l-.024-.028c-.939-1.052-2.946-1.079-3.872.022-.396.472-.48 1.06-.479 1.656 0 .057 0 .115.002.173.008.623.056 1.246.058 1.87l.006 3.494.005 2.27c0 .76-.193 1.32-.58 1.68-.389.362-.981.543-1.778.544-.816.002-1.523-.229-2.12-.693-.6-.463-.899-1.008-.9-1.634l-.008-4.107c-.002-.968.012-1.936.01-2.903 0-.73.196-1.588-.285-2.219C5.363.42 4.05.276 3.056.558c-.38.109-.74.304-1.005.598-.471.526-.449 1.201-.447 1.863l.002 1.175.006 3.126c.002.933.003 1.866-.002 2.798-.003.466-.008.932-.016 1.398-.009.47.064 1.001-.12 1.446-.14.341-.43.576-.725.783-.285.201-.608.38-.71.739-.134.475.092 1.015.383 1.338.72.796 2.053.533 2.392.467 1.195-.236 2.242-1.065 2.846-2.149.309.397.7.741 1.19 1.032 1.193.708 2.598.95 3.969.947 1.688-.003 3.044-.461 4.066-1.374 1.023-.913 1.532-2.24 1.53-3.986l-.01-4.352"/>
    </g>
    <path  d="M50.71 18.832l-.006-3.006c-.001-.772.13-1.605-.405-2.233l-.024-.028c-.938-1.052-2.946-1.08-3.871.022-.396.472-.48 1.06-.48 1.656l.002.173c.008.623.057 1.245.058 1.87l.007 3.493.004 2.272c.002.758-.192 1.318-.58 1.68-.388.36-.98.542-1.777.543-.816.002-1.523-.23-2.121-.693-.599-.463-.898-1.008-.9-1.634l-.008-4.108c-.002-.967.013-1.935.011-2.902 0-.73.196-1.588-.285-2.219-.667-.874-1.98-1.017-2.974-.735-.38.108-.74.304-1.005.598-.472.526-.45 1.2-.448 1.863l.003 1.174.005 3.127c.002.933.004 1.865-.002 2.798-.002.466-.007.932-.016 1.398-.008.47.065 1.001-.118 1.446-.141.341-.432.575-.726.783-.285.2-.608.38-.71.739-.134.475.091 1.015.383 1.338.719.796 2.052.533 2.391.467 1.196-.236 2.243-1.066 2.846-2.15.31.398.701.742 1.191 1.033 1.193.708 2.598.95 3.969.947 1.688-.004 3.044-.461 4.066-1.374 1.022-.913 1.532-2.24 1.529-3.986l-.009-4.352M11.64 2.67c0-1.475 1.195-2.67 2.67-2.67 1.474 0 2.67 1.195 2.67 2.67 0 1.475-1.196 2.67-2.67 2.67-1.475 0-2.67-1.195-2.67-2.67"/>
</svg>