<?xml version="1.0" encoding="UTF-8"?>
<svg width="164px" height="32px" viewBox="0 0 164 32" version="1.1" xmlns="http://www.w3.org/2000/svg" xmlns:xlink="http://www.w3.org/1999/xlink">
    <title>Logo-EN-Red@1x</title>
    <defs>
        <filter id="filter-1">
            <feColorMatrix in="SourceGraphic" type="matrix" values="0 0 0 0 0.905882 0 0 0 0 0.250980 0 0 0 0 0.231373 0 0 0 1.000000 0"></feColorMatrix>
        </filter>
    </defs>
    <g id="Backup" stroke="none" stroke-width="1" fill="none" fill-rule="evenodd">
        <g id="Artboard" transform="translate(-230.000000, -27.000000)">
            <g id="Mungmee" transform="translate(230.000000, 27.000000)" filter="url(#filter-1)">
                <g>
                    <path d="M24.4286792,-2.35953814e-14 C23.474757,0.0137542372 22.5817592,0.471415623 22.0135849,1.23779233 L14.6837736,11.1638301 L7.37207547,1.23779233 C6.80830935,0.466234363 5.91253522,0.00715012058 4.95698113,-2.35953814e-14 C4.18250454,-0.00476059936 3.43792195,0.298699182 2.88744938,0.843508455 C2.33697681,1.38831773 2.02583353,2.12972243 2.02264151,2.90420743 L0,22.1102452 C0,23.7408397 1.32185829,25.0626976 2.95245283,25.0626976 C4.58304737,25.0626976 5.90490547,23.7408397 5.90490566,22.1102452 L7.39622642,9.69666026 L11.1275472,14.273264 C10.4031691,15.1114026 10.0083162,16.1843724 10.0166038,17.292132 C10.1070698,19.80938 12.173957,21.8033209 14.6928302,21.8033209 C17.2117033,21.8033209 19.2785906,19.80938 19.3690566,17.292132 C19.3693619,16.1995823 18.9772589,15.1432612 18.2641509,14.3155282 L22.0377358,9.72684894 L23.474717,22.1102452 C23.491291,23.7413978 24.8200875,25.0540222 26.4513208,25.0506225 C28.0695568,25.0506259 29.3823307,23.7405533 29.3856604,22.1223206 L27.3630189,2.9162829 C27.3630338,2.139703 27.0533043,1.39519114 26.5024819,0.847768928 C25.9516596,0.300346714 25.2052442,-0.00476699259 24.4286792,-2.35953814e-14 Z" id="Path" fill="#E7403B" fill-rule="nonzero"></path>
                    <path d="M45.7660377,6.85288667 C44.2952137,6.85605144 43.0990288,8.03879611 43.0792453,9.50949045 L43.0792453,17.8053395 C43.0792453,19.6166603 42.0769811,21.017415 40.0603774,21.017415 C38.0437736,21.017415 37.0415094,19.622698 37.0415094,17.8053395 L37.0415094,9.50949045 C37.0415094,8.02561595 35.8385915,6.82269799 34.354717,6.82269799 C32.8708425,6.82269799 31.6679245,8.02561595 31.6679245,9.50949045 L31.6679245,17.8053395 C31.6679245,21.8808112 34.4150943,25.0506225 38.7622642,25.0506225 C40.586628,25.0811895 42.3528518,24.4088571 43.6950943,23.1728867 C43.9453133,24.2692914 44.9191824,25.047886 46.0437736,25.0506225 C47.3775934,25.0506225 48.4588679,23.969348 48.4588679,22.6355282 L48.4588679,9.50949045 C48.4390494,8.0364479 47.2392136,6.85275336 45.7660377,6.85288667 Z" id="Path" fill="#E7403B" fill-rule="nonzero"></path>
                    <path d="M62.3215094,6.85288667 C60.4946599,6.8272353 58.7281139,7.5061771 57.3886792,8.74873573 C57.1537388,7.64447128 56.1749932,6.85743869 55.0460377,6.86496215 C53.712218,6.86496215 52.6309434,7.94623671 52.6309434,9.28005649 L52.6309434,22.387981 C52.6309434,23.8718555 53.8338614,25.0747735 55.3177358,25.0747735 C56.8016103,25.0747735 58.0045283,23.8718555 58.0045283,22.387981 L58.0045283,14.0800565 C58.0045283,12.2687357 59.0067925,10.867981 61.0233962,10.867981 C63.04,10.867981 64.0422642,12.2566603 64.0422642,14.0800565 L64.0422642,22.387981 C64.0422643,23.8718554 65.2451822,25.0747735 66.7290566,25.0747735 C68.212931,25.0747735 69.4158491,23.8718554 69.4158491,22.387981 L69.4158491,14.0800565 C69.4158491,10.0045848 66.6686792,6.85288667 62.3215094,6.85288667 Z" id="Path" fill="#E7403B" fill-rule="nonzero"></path>
                    <path d="M87.8792453,6.78647158 C86.6710149,6.77371174 85.6392867,7.65583928 85.4641509,8.85137724 C84.1123421,7.48713319 82.2581153,6.74020086 80.3381132,6.78647158 C75.4656604,6.78647158 72.7788679,10.8257169 72.7788679,15.8430754 C72.7788679,20.8604338 75.4656604,24.947981 80.3381132,24.947981 C81.9924684,24.9818414 83.6067816,24.437331 84.9026415,23.4083584 L84.9026415,24.4589244 C84.9026415,26.5540187 83.3992453,27.7615659 81.2135849,27.7615659 C79.4894265,27.7876474 77.7845606,27.396129 76.2445283,26.6204338 C76.0089897,26.5154053 75.7537385,26.4618849 75.4958491,26.4634527 C74.3775896,26.479809 73.4768893,27.3858706 73.4671698,28.5042074 C73.4414417,29.2488227 73.8583936,29.9382147 74.5298113,30.2611886 C76.5899425,31.3366801 78.8904407,31.8686834 81.2135849,31.8068489 C86.7139623,31.8068489 90.2701887,28.7155282 90.2701887,23.3117546 L90.2701887,9.18949045 C90.2636557,7.86975402 89.1989321,6.79965294 87.8792453,6.78647158 Z M81.5396226,20.9268489 C79.1667925,20.9268489 78.1645283,18.6687357 78.1645283,15.8611886 C78.1645283,13.0536414 79.1667925,10.7955282 81.5396226,10.7955282 C83.9124528,10.7955282 84.914717,13.0536414 84.914717,15.8611886 C84.914717,18.6687357 83.9124528,20.9268489 81.5396226,20.9268489 Z" id="Shape" fill="#E7403B" fill-rule="nonzero"></path>
                    <path d="M114.566038,6.85288667 C112.452338,6.82490724 110.453623,7.81303605 109.192453,9.50949045 C107.958043,7.7812717 105.941558,6.78435796 103.818868,6.85288667 C102.100988,6.83577149 100.443307,7.48499383 99.1939623,8.66420743 C98.9211092,7.60719079 97.9731115,6.86463385 96.8815094,6.85288667 C95.5476897,6.85288667 94.4664151,7.93416124 94.4664151,9.26798101 L94.4664151,22.387981 C94.4664151,23.8718554 95.6693332,25.0747735 97.1532075,25.0747735 C98.6370819,25.0747735 99.8399998,23.8718554 99.84,22.387981 L99.84,13.9894904 C99.84,12.2264716 100.715472,10.867981 102.526792,10.867981 C104.338113,10.867981 105.213585,12.2264716 105.213585,13.9894904 L105.213585,22.387981 C105.213585,23.8718555 106.416503,25.0747735 107.900377,25.0747735 C109.384252,25.0747735 110.58717,23.8718555 110.58717,22.387981 L110.58717,13.9894904 C110.58717,12.2264716 111.49283,10.867981 113.304151,10.867981 C115.115472,10.867981 115.990943,12.2264716 115.990943,13.9894904 L115.990943,22.387981 C115.990943,23.8718555 117.193861,25.0747735 118.677736,25.0747735 C120.16161,25.0747735 121.364528,23.8718555 121.364528,22.387981 L121.364528,13.9894904 C121.340377,9.9562829 118.689811,6.85288667 114.566038,6.85288667 Z" id="Path" fill="#E7403B" fill-rule="nonzero"></path>
                    <path d="M133.808302,6.85288667 C128.748679,6.85288667 124.751698,10.2823206 124.751698,15.9094904 C124.751698,20.6611886 127.770566,25.0143961 133.868679,25.0143961 C136.255597,25.0480086 138.582171,24.2639616 140.461887,22.7925093 C141.068506,22.4211673 141.454346,21.7758456 141.49434,21.0657169 C141.491683,20.5206132 141.266478,20.0002493 140.870903,19.6251946 C140.475329,19.25014 139.943718,19.0529456 139.399245,19.0793018 C138.957163,19.0719698 138.527666,19.2265889 138.191698,19.5140187 C137.18357,20.51738 135.803116,21.0555601 134.381887,20.9993018 C132.32546,21.0786609 130.536257,19.6036726 130.221887,17.5698678 L141.25283,17.5698678 C141.70011,17.6126369 142.143307,17.454723 142.462768,17.1387599 C142.782229,16.8227967 142.945012,16.3813645 142.90717,15.9336414 C142.931321,10.1253395 138.873962,6.85288667 133.808302,6.85288667 Z M130.18566,14.3276037 C130.626415,11.9125093 132.123774,10.867981 133.808302,10.867981 C135.49283,10.867981 136.966038,11.8883584 137.430943,14.3276037 L130.18566,14.3276037 Z" id="Shape" fill="#E7403B" fill-rule="nonzero"></path>
                    <path d="M163.743396,15.9336414 C163.743396,10.1253395 159.68,6.87703762 154.620377,6.87703762 C149.560755,6.87703762 145.527547,10.3064716 145.527547,15.9336414 C145.527547,20.6853395 148.546415,25.0385471 154.650566,25.0385471 C157.037331,25.0711862 159.36359,24.2872453 161.243774,22.8166603 C161.847326,22.4431708 162.230507,21.7985254 162.270189,21.0898678 C162.275431,20.5465896 162.058591,20.0247321 161.669885,19.6451452 C161.281179,19.2655583 160.754321,19.0611664 160.211321,19.0793018 C159.769239,19.0719698 159.339741,19.2265889 159.003774,19.5140187 C157.995645,20.51738 156.615191,21.0555601 155.193962,20.9993018 C153.138861,21.0782935 151.35158,19.602747 151.04,17.5698678 L162.064906,17.5698678 C162.515618,17.6181281 162.964378,17.4629162 163.288962,17.1465052 C163.613546,16.8300942 163.780149,16.3854377 163.743396,15.9336414 L163.743396,15.9336414 Z M151.027925,14.3276037 C151.462642,11.9125093 152.96,10.867981 154.650566,10.867981 C156.341132,10.867981 157.802264,11.8883584 158.243019,14.3276037 L151.027925,14.3276037 Z" id="Shape" fill="#E7403B" fill-rule="nonzero"></path>
                </g>
            </g>
        </g>
    </g>
</svg>